<svg viewBox="0 0 1000 680" xmlns="http://www.w3.org/2000/svg">
  <!-- Styles avec palette de couleurs améliorée -->
  <style>
    .node { fill: #f1f8ff; stroke: #4a6fa5; stroke-width: 2; }
    .node-decision { fill: #e6f2ff; stroke: #4a6fa5; stroke-width: 2; }
    .node-final { fill: #e6f7ff; stroke: #2c5282; stroke-width: 2; }
    .node-final:hover { fill: #d1e8ff; cursor: pointer; }
    .text { font-family: Arial, sans-serif; font-size: 14px; text-anchor: middle; }
    .text-title { font-weight: bold; fill: #2c5282; }
    .text-small { font-size: 11px; fill: #4a5568; }
    .link { stroke: #4a6fa5; stroke-width: 2; fill: none; }
    .label { font-family: Arial, sans-serif; font-size: 12px; fill: #4a5568; font-weight: 500; }
    .section-title { font-family: Arial, sans-serif; font-size: 16px; font-weight: bold; fill: #2d3748; text-anchor: middle; }
    .difficulty-easy { fill: #48bb78; font-size: 10px; font-weight: bold; }
    .difficulty-medium { fill: #ecc94b; font-size: 10px; font-weight: bold; }
    .difficulty-advanced { fill: #e53e3e; font-size: 10px; font-weight: bold; }
  </style>

  <!-- Background -->
  <rect width="1000" height="680" fill="white"/>
  
  <!-- Title -->
  <text x="500" y="30" font-family="Arial, sans-serif" font-size="24" font-weight="bold" text-anchor="middle" fill="#2c5282">Arbre de Décision pour Choisir une Technique de Prompting</text>
  <text x="500" y="55" font-family="Arial, sans-serif" font-size="14" text-anchor="middle" fill="#4a5568">Guide pour sélectionner la technique optimale selon vos besoins</text>

  <!-- Starting node -->
  <rect x="450" y="80" width="100" height="50" rx="8" class="node-decision"/>
  <text x="500" y="105" class="text text-title">Objectif du</text>
  <text x="500" y="120" class="text text-title">prompt</text>

  <!-- First level: Examples available? -->
  <rect x="450" y="170" width="100" height="50" rx="8" class="node-decision"/>
  <text x="500" y="190" class="text text-title">Exemples</text>
  <text x="500" y="205" class="text text-title">disponibles?</text>

  <!-- Link from start to first decision -->
  <path d="M500,130 L500,170" class="link" marker-end="url(#arrowhead)"/>

  <!-- Second level branches -->
  <!-- None -->
  <rect x="250" y="260" width="120" height="50" rx="8" class="node-decision"/>
  <text x="310" y="280" class="text text-title">Complexité</text>
  <text x="310" y="295" class="text text-title">de la tâche?</text>
  <path d="M450,195 L310,260" class="link" marker-end="url(#arrowhead)"/>
  <text x="360" y="220" class="label">Aucun</text>

  <!-- One -->
  <rect x="450" y="260" width="120" height="60" rx="8" class="node-final"/>
  <text x="510" y="280" class="text text-title">One-Shot</text>
  <text x="510" y="295" class="text text-small">Guide avec un exemple</text>
  <text x="510" y="310" class="difficulty-easy">FACILE</text>
  <path d="M500,220 L500,260" class="link" marker-end="url(#arrowhead)"/>
  <text x="510" y="240" class="label">Un seul</text>

  <!-- Multiple -->
  <rect x="650" y="260" width="120" height="50" rx="8" class="node-decision"/>
  <text x="710" y="280" class="text text-title">Importance</text>
  <text x="710" y="295" class="text text-title">du format?</text>
  <path d="M550,195 L710,260" class="link" marker-end="url(#arrowhead)"/>
  <text x="640" y="220" class="label">Plusieurs</text>

  <!-- None + Simple -->
  <rect x="120" y="350" width="120" height="60" rx="8" class="node-final"/>
  <text x="180" y="370" class="text text-title">Zero-Shot</text>
  <text x="180" y="385" class="text text-small">Question directe</text>
  <text x="180" y="400" class="difficulty-easy">FACILE</text>
  <path d="M250,285 L180,350" class="link" marker-end="url(#arrowhead)"/>
  <text x="185" y="320" class="label">Simple</text>

  <!-- None + Complex -->
  <rect x="310" y="350" width="120" height="50" rx="8" class="node-decision"/>
  <text x="370" y="370" class="text text-title">Objectif</text>
  <text x="370" y="385" class="text text-title">principal?</text>
  <path d="M310,310 L370,350" class="link" marker-end="url(#arrowhead)"/>
  <text x="340" y="330" class="label">Complexe</text>

  <!-- Multiple + Format High -->
  <rect x="620" y="350" width="120" height="60" rx="8" class="node-final"/>
  <text x="680" y="370" class="text text-title">Few-Shot</text>
  <text x="680" y="385" class="text text-small">Plusieurs exemples</text>
  <text x="680" y="400" class="difficulty-medium">INTERMÉDIAIRE</text>
  <path d="M710,310 L680,350" class="link" marker-end="url(#arrowhead)"/>
  <text x="665" y="330" class="label">Haute</text>

  <!-- Multiple + Format Low -->
  <rect x="800" y="350" width="120" height="60" rx="8" class="node-final"/>
  <text x="860" y="370" class="text text-title">Multi-Prompting</text>
  <text x="860" y="385" class="text text-small">Plusieurs angles</text>
  <text x="860" y="400" class="difficulty-advanced">AVANCÉ</text>
  <path d="M770,285 L860,350" class="link" marker-end="url(#arrowhead)"/>
  <text x="830" y="320" class="label">Faible</text>

  <!-- None + Complex + Content -->
  <rect x="130" y="440" width="120" height="60" rx="8" class="node-final"/>
  <text x="190" y="460" class="text text-title">RCT</text>
  <text x="190" y="475" class="text text-small">Rôle-Contexte-Tâche</text>
  <text x="190" y="490" class="difficulty-medium">INTERMÉDIAIRE</text>
  <path d="M310,375 L190,440" class="link" marker-end="url(#arrowhead)"/>
  <text x="230" y="410" class="label">Création</text>

  <!-- None + Complex + Problem -->
  <rect x="310" y="440" width="120" height="60" rx="8" class="node-final"/>
  <text x="370" y="460" class="text text-title">Chain-of-Thought</text>
  <text x="370" y="475" class="text text-small">Pensée étape par étape</text>
  <text x="370" y="490" class="difficulty-medium">INTERMÉDIAIRE</text>
  <path d="M370,400 L370,440" class="link" marker-end="url(#arrowhead)"/>
  <text x="320" y="420" class="label">Problème</text>

  <!-- None + Complex + Info -->
  <rect x="490" y="440" width="120" height="60" rx="8" class="node-final"/>
  <text x="550" y="460" class="text text-title">Generated Knowledge</text>
  <text x="550" y="475" class="text text-small">Connaissance générée</text>
  <text x="550" y="490" class="difficulty-advanced">AVANCÉ</text>
  <path d="M430,375 L550,440" class="link" marker-end="url(#arrowhead)"/>
  <text x="510" y="410" class="label">Information</text>

  <!-- Section for additional techniques -->
  <text x="500" y="530" class="section-title">Techniques Additionnelles Selon le Contexte</text>
  
  <!-- Additional techniques cards -->
  <rect x="100" y="550" width="150" height="100" rx="8" class="node-final"/>
  <text x="175" y="575" class="text text-title">Expert Role-Playing</text>
  <text x="175" y="590" class="text text-small">Expertise spécifique</text>
  <text x="175" y="605" class="text text-small">Adopte un rôle d'expert</text>
  <text x="175" y="620" class="text text-small">dans un domaine</text>
  <text x="175" y="635" class="difficulty-medium">INTERMÉDIAIRE</text>
  
  <rect x="270" y="550" width="150" height="100" rx="8" class="node-final"/>
  <text x="345" y="575" class="text text-title">Iterative Prompting</text>
  <text x="345" y="590" class="text text-small">Questions de suivi</text>
  <text x="345" y="605" class="text text-small">Amélioration successive</text>
  <text x="345" y="620" class="text text-small">des réponses</text>
  <text x="345" y="635" class="difficulty-medium">INTERMÉDIAIRE</text>
  
  <rect x="440" y="550" width="150" height="100" rx="8" class="node-final"/>
  <text x="515" y="575" class="text text-title">Contextual Augment.</text>
  <text x="515" y="590" class="text text-small">Enrichit avec des</text>
  <text x="515" y="605" class="text text-small">informations externes</text>
  <text x="515" y="620" class="text text-small">ou documents spécifiques</text>
  <text x="515" y="635" class="difficulty-advanced">AVANCÉ</text>
  
  <rect x="610" y="550" width="150" height="100" rx="8" class="node-final"/>
  <text x="685" y="575" class="text text-title">Template Filling</text>
  <text x="685" y="590" class="text text-small">Structure prédéfinie</text>
  <text x="685" y="605" class="text text-small">Gabarit avec espaces</text>
  <text x="685" y="620" class="text text-small">à compléter</text>
  <text x="685" y="635" class="difficulty-medium">INTERMÉDIAIRE</text>
  
  <rect x="780" y="550" width="150" height="100" rx="8" class="node-final"/>
  <text x="855" y="575" class="text text-title">Least-to-Most</text>
  <text x="855" y="590" class="text text-small">Du simple au complexe</text>
  <text x="855" y="605" class="text text-small">Décompose un problème</text>
  <text x="855" y="620" class="text text-small">en étapes progressives</text>
  <text x="855" y="635" class="difficulty-advanced">AVANCÉ</text>

  <!-- Arrow markers definition -->
  <defs>
    <marker id="arrowhead" markerWidth="10" markerHeight="7" refX="9" refY="3.5" orient="auto">
      <polygon points="0 0, 10 3.5, 0 7" fill="#4a6fa5"/>
    </marker>
  </defs>

  <!-- Legend at the bottom -->
  <rect x="350" y="660" width="80" height="15" rx="3" fill="#48bb78" fill-opacity="0.2" stroke="#48bb78"/>
  <text x="390" y="672" font-family="Arial, sans-serif" font-size="10" text-anchor="middle" fill="#2f855a">FACILE</text>
  
  <rect x="450" y="660" width="110" height="15" rx="3" fill="#ecc94b" fill-opacity="0.2" stroke="#ecc94b"/>
  <text x="505" y="672" font-family="Arial, sans-serif" font-size="10" text-anchor="middle" fill="#975a16">INTERMÉDIAIRE</text>
  
  <rect x="580" y="660" width="80" height="15" rx="3" fill="#e53e3e" fill-opacity="0.2" stroke="#e53e3e"/>
  <text x="620" y="672" font-family="Arial, sans-serif" font-size="10" text-anchor="middle" fill="#c53030">AVANCÉ</text>
</svg>